#!OML:ASF F:\VICON\USERDATA\INSTALL\rory3\rory3.ASF
:FULLY-SPECIFIED
:DEGREES
462
root -3.66781 15.3889 22.7851 570.117 -14.0897 183.373
lowerback 2.66089 3.88443 -6.65606
upperback -10.4199 2.70801 -7.23446
thorax -12.9084 0.976905 -4.52403
lowerneck -26.5237 11.8489 4.21048
upperneck 16.6338 17.9004 -14.2605
head 11.5778 6.439 -2.6093
rclavicle -7.27552e-014 1.41535e-013
rhumerus 122.851 -34.268 249.355
rradius 11.4614
rwrist 67.2479
rhand -14.2628 6.01293
rfingers 7.12502
rthumb 11.8757 -23.6303
lclavicle -7.27552e-014 1.41535e-013
lhumerus -3.72093 43.3395 -2.19566
lradius 23.169
lwrist -28.588
lhand -4.91951 28.6426
lfingers 7.12502
lthumb 20.8707 57.54
rfemur 1.84573 9.26721 32.161
rtibia -3.18055e-015
rfoot -43.5597 -48.2448
rtoes -1.08063
lfemur -86.9751 22.0516 -45.8469
ltibia 57.58
lfoot -28.3359 27.9621
ltoes 19.7335
463
root -3.66386 15.4009 22.7931 570.163 -14.28 183.273
lowerback 2.8591 3.85889 -6.58359
upperback -10.4224 2.67285 -7.19548
thorax -13.0314 0.958962 -4.53222
lowerneck -26.6267 11.7361 3.89909
upperneck 16.3003 17.8316 -14.4531
head 11.4613 6.37184 -2.64417
rclavicle 4.57205e-014 -1.20861e-013
rhumerus 123.392 -33.5959 248.344
rradius 11.3668
rwrist 69.0701
rhand -14.0703 6.19281
rfingers 7.12502
rthumb 12.0613 -23.4396
lclavicle 4.57205e-014 -1.20861e-013
lhumerus -3.66147 43.9993 -2.09122
lradius 22.7958
lwrist -29.2759
lhand -4.97401 28.2101
lfingers 7.12502
lthumb 20.8184 57.1132
rfemur 1.75605 9.06798 32.1482
rtibia 3.81667e-014
rfoot -43.802 -47.9913
rtoes -0.712247
lfemur -86.6294 21.7242 -45.6391
ltibia 57.239
lfoot -28.5245 27.9661
ltoes 19.8273
464
root -3.65644 15.4114 22.7943 570.233 -14.4119 183.253
lowerback 2.99161 3.84526 -6.45233
upperback -10.4674 2.64502 -7.2107
thorax -13.1584 0.929184 -4.63215
lowerneck -26.7305 11.633 3.58133
upperneck 16.1119 17.7494 -14.3969
head 11.3648 6.32662 -2.59203
rclavicle 2.54444e-014 1.30403e-013
rhumerus 123.577 -33.3376 247.83
rradius 11.2737
rwrist 69.8819
rhand -14.1375 6.29939
rfingers 7.12502
rthumb 11.9966 -23.3368
lclavicle 2.54444e-014 1.30403e-013
lhumerus -3.78536 43.8798 -2.28576
lradius 22.6682
lwrist -29.1575
lhand -5.01657 28.2588
lfingers 7.12502
lthumb 20.7775 57.1664
rfemur 1.6484 8.96407 32.2084
rtibia -9.54166e-015
rfoot -43.9499 -47.7437
rtoes -0.423234
lfemur -86.4091 21.5078 -45.4701
ltibia 56.9254
lfoot -28.8207 27.906
ltoes 19.7662
465
root -3.64925 15.4194 22.7944 570.326 -14.5587 183.321
lowerback 2.9662 3.82162 -6.27415
upperback -10.4453 2.65484 -7.16644
thorax -13.1016 0.925537 -4.67806
lowerneck -27.0293 11.5632 3.16146
upperneck 15.9315 17.7456 -14.3096
head 11.3005 6.30171 -2.49162
rclavicle -5.28767e-014 8.5875e-014
rhumerus 123.466 -33.3605 247.807
rradius 11.4547
rwrist 69.9488
rhand -14.4868 6.43138
rfingers 7.12502
rthumb 11.6597 -23.2242
lclavicle -5.28767e-014 8.5875e-014
lhumerus -3.88566 44.2629 -2.40839
lradius 22.3955
lwrist -29.436
lhand -4.8886 28.4166
lfingers 7.12502
lthumb 20.9004 57.3107
rfemur 1.48314 8.90316 32.3424
rtibia 3.49861e-014
rfoot -44.0033 -47.608
rtoes 0.0429308
lfemur -86.3821 21.4009 -45.3799
ltibia 56.6818
lfoot -28.8903 27.8492
ltoes 19.4882
466
root -3.64807 15.4318 22.7979 570.368 -14.7399 183.261
lowerback 2.9868 3.77803 -6.10585
upperback -10.3391 2.64994 -7.1268
thorax -12.974 0.921251 -4.71798
lowerneck -27.3209 11.5031 2.59177
upperneck 15.7957 17.781 -14.0505
head 11.219 6.30706 -2.30174
rclavicle -6.44062e-014 6.67916e-014
rhumerus 123.292 -33.4719 248.045
rradius 11.6108
rwrist 69.7658
rhand -14.572 6.46989
rfingers 7.12502
rthumb 11.5775 -23.1903
lclavicle -6.44062e-014 6.67916e-014
lhumerus -3.9524 45.0016 -2.32222
lradius 22.1627
lwrist -29.8609
lhand -4.78472 28.399
lfingers 7.12502
lthumb 21.0002 57.282
rfemur 1.40736 8.72951 32.358
rtibia 3.49861e-014
rfoot -44.0633 -47.5112
rtoes 0.0988524
lfemur -86.1611 21.1992 -45.2659
ltibia 56.4448
lfoot -28.915 27.5938
ltoes 20.1563
467
root -3.64704 15.4424 22.8071 570.457 -14.9517 183.307
lowerback 2.90641 3.87232 -5.79331
upperback -10.2653 2.84256 -7.1802
thorax -12.8007 0.990572 -4.96409
lowerneck -27.178 11.3293 2.40946
upperneck 15.4834 17.548 -14.0542
head 11.0417 6.22256 -2.32985
rclavicle -4.05521e-014 5.40694e-014
rhumerus 123.407 -33.9058 248.223
rradius 11.6456
rwrist 69.6751
rhand -14.3314 6.4313
rfingers 7.12502
rthumb 11.8096 -23.2157
lclavicle -4.05521e-014 5.40694e-014
lhumerus -3.31164 45.7825 -1.63498
lradius 21.8544
lwrist -30.5393
lhand -4.61566 28.4418
lfingers 7.12502
lthumb 21.1627 57.3067
rfemur 1.23778 8.60235 32.4722
rtibia -3.49861e-014
rfoot -44.1229 -47.4399
rtoes 0.0353739
lfemur -86.0331 20.9285 -45.0499
ltibia 56.2051
lfoot -28.9781 27.5079
ltoes 20.0365
468
root -3.64428 15.4571 22.8172 570.612 -14.9604 183.232
lowerback 2.73661 4.00884 -5.73442
upperback -10.1829 3.0579 -7.28981
thorax -12.5785 1.08799 -5.12658
lowerneck -26.8991 11.1837 2.45594
upperneck 15.0315 17.2904 -14.2469
head 10.8322 6.13371 -2.46576
rclavicle -5.84427e-014 -1.47896e-013
rhumerus 123.638 -34.1089 248.077
rradius 11.7297
rwrist 69.7218
rhand -14.4268 6.24649
rfingers 7.12502
rthumb 11.7176 -23.4058
lclavicle -5.84427e-014 -1.47896e-013
lhumerus -2.68639 46.5374 -1.01895
lradius 21.532
lwrist -31.1521
lhand -4.36161 28.5515
lfingers 7.12502
lthumb 21.4067 57.3889
rfemur 1.01079 8.60513 32.365
rtibia 1.90833e-014
rfoot -43.9389 -47.5362
rtoes -0.248991
lfemur -85.9338 20.7608 -45.0693
ltibia 55.9113
lfoot -29.0857 27.354
ltoes 20.1761
469
root -3.64036 15.4666 22.8272 570.723 -14.9278 183.136
lowerback 2.71701 4.08935 -5.75037
upperback -10.1772 3.16159 -7.35188
thorax -12.5541 1.13513 -5.19899
lowerneck -26.3952 11.1215 2.61558
upperneck 14.4938 17.11 -14.5254
head 10.5803 6.09252 -2.63862
rclavicle -2.0276e-014 8.74653e-014
rhumerus 123.789 -34.0987 247.787
rradius 11.7273
rwrist 70.0011
rhand -14.4906 6.24317
rfingers 7.12502
rthumb 11.656 -23.4126
lclavicle -2.0276e-014 8.74653e-014
lhumerus -2.43236 47.2084 -0.783762
lradius 21.3065
lwrist -31.7213
lhand -3.97828 28.6929
lfingers 7.12502
lthumb 21.7748 57.488
rfemur 0.846532 8.62027 32.229
rtibia -6.36111e-015
rfoot -43.8946 -47.5982
rtoes -0.511627
lfemur -85.836 20.6668 -45.1963
ltibia 55.6278
lfoot -29.0069 27.3136
ltoes 20.8441
470
root -3.63371 15.4755 22.8333 570.747 -14.9752 183.143
lowerback 2.81147 4.0758 -5.67801
upperback -10.2381 3.12302 -7.37935
thorax -12.6803 1.10161 -5.27825
lowerneck -25.4562 11.2262 3.21555
upperneck 13.761 17.0269 -15.0069
head 10.2548 6.13595 -2.93917
rclavicle 5.56597e-015 -1.28812e-013
rhumerus 123.669 -34.0028 247.482
rradius 11.7939
rwrist 70.1389
rhand -14.2761 6.23219
rfingers 7.12502
rthumb 11.8629 -23.4118
lclavicle 5.56597e-015 -1.28812e-013
lhumerus -2.44247 47.614 -0.913707
lradius 21.2157
lwrist -31.9701
lhand -3.62627 28.8132
lfingers 7.12502
lthumb 22.1128 57.5687
rfemur 0.754542 8.60093 32.249
rtibia 6.36111e-015
rfoot -43.8957 -47.6674
rtoes -0.470341
lfemur -85.7725 20.648 -45.2169
ltibia 55.3944
lfoot -28.6807 27.7354
ltoes 19.2167
471
root -3.6269 15.4808 22.8408 570.785 -15.0237 183.206
lowerback 2.91499 4.10732 -5.53082
upperback -10.3189 3.15282 -7.41207
thorax -12.8264 1.09354 -5.41714
lowerneck -24.9369 11.2584 3.3286
upperneck 13.3791 16.964 -14.9555
head 10.025 6.18122 -2.96692
rclavicle 1.07344e-014 -1.54257e-013
rhumerus 123.454 -34.1485 247.437
rradius 11.8786
rwrist 70.0149
rhand -14.5142 6.31519
rfingers 7.12502
rthumb 11.6333 -23.3419
lclavicle 1.07344e-014 -1.54257e-013
lhumerus -2.19383 48.2364 -0.759743
lradius 21.0442
lwrist -32.6393
lhand -3.26215 28.5613
lfingers 7.12502
lthumb 22.4623 57.275
rfemur 0.648765 8.61268 32.3328
rtibia -3.18055e-014
rfoot -43.7112 -47.7521
rtoes -0.423006
lfemur -85.869 20.7247 -45.3172
ltibia 55.246
lfoot -28.4239 27.9312
ltoes 17.9162
